<svg width="216" height="61" viewBox="0 0 216 61" fill="none" xmlns="http://www.w3.org/2000/svg">
<path d="M193.347 60.8335C192.459 60.8335 191.65 60.7606 190.921 60.6148C190.192 60.4822 189.649 60.3364 189.291 60.1773L190.722 55.3051C191.81 55.5968 192.777 55.7228 193.626 55.683C194.474 55.6432 195.223 55.325 195.873 54.7284C196.536 54.1318 197.119 53.1574 197.623 51.8051L198.359 49.7767L187.183 18.8335H193.546L201.282 42.5381H201.6L209.336 18.8335H215.72L203.131 53.4557C202.548 55.0466 201.806 56.3923 200.904 57.4926C200.003 58.6063 198.929 59.4415 197.683 59.9983C196.436 60.5551 194.991 60.8335 193.347 60.8335Z" fill="#AB3415"/>
<path d="M183.011 18.8336V23.6063H166.327V18.8336H183.011ZM170.801 11.5154H176.747V40.4103C176.747 41.5637 176.92 42.432 177.264 43.0154C177.609 43.5854 178.053 43.9765 178.597 44.1887C179.153 44.3875 179.757 44.487 180.406 44.487C180.884 44.487 181.301 44.4538 181.659 44.3875C182.017 44.3212 182.296 44.2682 182.494 44.2284L183.568 49.1404C183.224 49.2729 182.733 49.4055 182.097 49.5381C181.46 49.6839 180.665 49.7635 179.71 49.7767C178.146 49.8033 176.688 49.5248 175.335 48.9415C173.983 48.3582 172.889 47.4567 172.054 46.237C171.219 45.0173 170.801 43.486 170.801 41.6432V11.5154Z" fill="#AB3415"/>
<path d="M154.808 49.379V18.8335H160.754V49.379H154.808ZM157.81 14.1205C156.776 14.1205 155.888 13.7758 155.146 13.0864C154.417 12.3837 154.052 11.5485 154.052 10.5807C154.052 9.59965 154.417 8.76442 155.146 8.07503C155.888 7.37237 156.776 7.02105 157.81 7.02105C158.845 7.02105 159.726 7.37237 160.455 8.07503C161.198 8.76442 161.569 9.59965 161.569 10.5807C161.569 11.5485 161.198 12.3837 160.455 13.0864C159.726 13.7758 158.845 14.1205 157.81 14.1205Z" fill="#AB3415"/>
<path d="M145.386 1.206V45.9285C145.386 46.3975 145.475 46.7548 145.654 47.0005C145.833 47.2462 146.112 47.4137 146.492 47.503L148.267 47.838C148.557 47.905 148.77 48.0055 148.904 48.1395C149.038 48.2735 149.105 48.441 149.105 48.642C149.105 48.8653 149.015 49.044 148.837 49.178C148.68 49.312 148.423 49.379 148.066 49.379H135.973C135.638 49.379 135.392 49.312 135.236 49.178C135.079 49.044 135.001 48.8653 135.001 48.642C135.001 48.441 135.068 48.2735 135.202 48.1395C135.336 48.0055 135.548 47.905 135.839 47.838L137.648 47.503C138.027 47.4137 138.306 47.2462 138.485 47.0005C138.664 46.7548 138.753 46.4087 138.753 45.962V5.159C138.753 4.824 138.686 4.57834 138.552 4.422C138.44 4.24334 138.239 4.14283 137.949 4.1205L135.537 4.0535C135.291 4.03117 135.113 3.96417 135.001 3.8525C134.889 3.74083 134.834 3.59567 134.834 3.417C134.834 3.216 134.889 3.05967 135.001 2.948C135.135 2.814 135.37 2.68 135.705 2.546L142.271 0.469002C142.762 0.290335 143.153 0.167501 143.443 0.1005C143.733 0.0334996 143.99 0 144.214 0C144.593 0 144.884 0.111666 145.085 0.334999C145.286 0.536 145.386 0.826336 145.386 1.206Z" fill="#AB3415"/>
<path d="M125.692 1.206V45.9285C125.692 46.3975 125.781 46.7548 125.96 47.0005C126.138 47.2462 126.418 47.4137 126.797 47.503L128.573 47.838C128.863 47.905 129.075 48.0055 129.209 48.1395C129.343 48.2735 129.41 48.441 129.41 48.642C129.41 48.8653 129.321 49.044 129.142 49.178C128.986 49.312 128.729 49.379 128.372 49.379H116.278C115.943 49.379 115.698 49.312 115.541 49.178C115.385 49.044 115.307 48.8653 115.307 48.642C115.307 48.441 115.374 48.2735 115.508 48.1395C115.642 48.0055 115.854 47.905 116.144 47.838L117.953 47.503C118.333 47.4137 118.612 47.2462 118.791 47.0005C118.969 46.7548 119.059 46.4087 119.059 45.962V5.159C119.059 4.824 118.992 4.57834 118.858 4.422C118.746 4.24334 118.545 4.14283 118.255 4.1205L115.843 4.0535C115.597 4.03117 115.418 3.96417 115.307 3.8525C115.195 3.74083 115.139 3.59567 115.139 3.417C115.139 3.216 115.195 3.05967 115.307 2.948C115.441 2.814 115.675 2.68 116.01 2.546L122.576 0.469002C123.068 0.290335 123.458 0.167501 123.749 0.1005C124.039 0.0334996 124.296 0 124.519 0C124.899 0 125.189 0.111666 125.39 0.334999C125.591 0.536 125.692 0.826336 125.692 1.206Z" fill="#AB3415"/>
<path d="M107.632 19.564V45.9285C107.632 46.3975 107.721 46.7548 107.9 47.0005C108.101 47.2462 108.391 47.4137 108.771 47.503L110.513 47.838C110.803 47.905 111.015 48.0055 111.149 48.1395C111.283 48.2735 111.35 48.441 111.35 48.642C111.35 48.8653 111.261 49.044 111.082 49.178C110.926 49.312 110.669 49.379 110.312 49.379H98.2181C97.9054 49.379 97.6597 49.312 97.4811 49.178C97.3247 49.044 97.2466 48.8653 97.2466 48.642C97.2466 48.4633 97.3136 48.307 97.4476 48.173C97.5816 48.039 97.7826 47.9385 98.0506 47.8715L99.8931 47.503C100.273 47.4137 100.552 47.2462 100.731 47.0005C100.932 46.7548 101.032 46.4087 101.032 45.962V23.5505C101.032 23.2155 100.965 22.9698 100.831 22.8135C100.719 22.6348 100.518 22.5343 100.228 22.512L97.8161 22.445C97.5481 22.4227 97.3582 22.3557 97.2466 22.244C97.1349 22.11 97.0791 21.9648 97.0791 21.8085C97.0791 21.6075 97.1461 21.44 97.2801 21.306C97.4141 21.172 97.6374 21.0492 97.9501 20.9375L104.516 18.8605C105.03 18.6818 105.432 18.559 105.722 18.492C106.012 18.425 106.258 18.3915 106.459 18.3915C106.861 18.3915 107.151 18.5032 107.33 18.7265C107.531 18.9275 107.632 19.2067 107.632 19.564ZM103.813 12.4955C102.495 12.4955 101.434 12.1047 100.63 11.323C99.8261 10.5413 99.4241 9.55867 99.4241 8.375C99.4241 7.19134 99.8261 6.21984 100.63 5.4605C101.456 4.67884 102.517 4.288 103.813 4.288C105.13 4.288 106.202 4.67884 107.029 5.4605C107.855 6.21984 108.268 7.19134 108.268 8.375C108.268 9.55867 107.855 10.5413 107.029 11.323C106.202 12.1047 105.13 12.4955 103.813 12.4955Z" fill="#AB3415"/>
<path d="M61.2791 49.379C60.9441 49.379 60.7096 49.312 60.5756 49.178C60.4639 49.044 60.4081 48.8653 60.4081 48.642C60.4081 48.441 60.4751 48.2735 60.6091 48.1395C60.7431 48.0055 60.9553 47.905 61.2456 47.838L63.0546 47.503C63.4343 47.4137 63.7134 47.2462 63.8921 47.0005C64.0708 46.7548 64.1601 46.4087 64.1601 45.962V5.159C64.1601 4.824 64.0931 4.57834 63.9591 4.422C63.8474 4.24334 63.6464 4.14283 63.3561 4.1205L60.9441 4.0535C60.6984 4.03117 60.5086 3.96417 60.3746 3.8525C60.2629 3.74083 60.2071 3.59567 60.2071 3.417C60.2071 3.216 60.2741 3.05967 60.4081 2.948C60.5421 2.814 60.7766 2.68 61.1116 2.546L67.6776 0.469002C68.1689 0.312666 68.5598 0.201 68.8501 0.134003C69.1404 0.0446678 69.3973 0 69.6206 0C70.0003 0 70.2906 0.111666 70.4916 0.334999C70.6926 0.536 70.7931 0.826336 70.7931 1.206V45.9285C70.7931 46.3975 70.8824 46.7548 71.0611 47.0005C71.2398 47.2462 71.5189 47.4137 71.8986 47.503L73.6406 47.838C74.1543 47.9943 74.4111 48.2512 74.4111 48.6085C74.4111 49.1222 74.0649 49.379 73.3726 49.379H61.2791ZM69.0176 36.2135L82.9201 23.8185C83.7464 23.0592 84.1038 22.3892 83.9921 21.8085C83.8804 21.2055 83.3333 20.8035 82.3506 20.6025L81.0106 20.368C80.7203 20.301 80.5193 20.2117 80.4076 20.1C80.2959 19.966 80.2401 19.7985 80.2401 19.5975C80.2401 19.3518 80.3294 19.1732 80.5081 19.0615C80.6868 18.9275 80.9324 18.8605 81.2451 18.8605H92.0991C92.4118 18.8605 92.6574 18.9275 92.8361 19.0615C93.0148 19.1955 93.1041 19.3742 93.1041 19.5975C93.1041 19.8208 93.0259 20.0107 92.8696 20.167C92.7133 20.301 92.3894 20.4238 91.8981 20.5355C90.6698 20.7588 89.5531 21.1385 88.5481 21.6745C87.5431 22.2105 86.4264 23.0257 85.1981 24.12L69.5536 37.855L69.0176 36.2135ZM79.0676 28.3075L90.2901 45.4595C90.8261 46.2412 91.3063 46.7772 91.7306 47.0675C92.1773 47.3578 92.8138 47.5923 93.6401 47.771C93.9751 47.8827 94.2096 48.0167 94.3436 48.173C94.4776 48.3293 94.5446 48.4968 94.5446 48.6755C94.5446 48.8988 94.4553 49.0775 94.2766 49.2115C94.1203 49.3232 93.8858 49.379 93.5731 49.379H80.9771C80.6868 49.379 80.4523 49.312 80.2736 49.178C80.1173 49.044 80.0391 48.8653 80.0391 48.642C80.0391 48.4633 80.0949 48.3182 80.2066 48.2065C80.3406 48.0725 80.5416 47.972 80.8096 47.905L82.1831 47.6705C82.8531 47.5588 83.2328 47.3243 83.3221 46.967C83.4114 46.6097 83.1993 46.0513 82.6856 45.292L74.4446 32.495L79.0676 28.3075Z" fill="#AB3415"/>
<path d="M44.6505 48.4075C46.3255 48.4075 47.6544 47.9608 48.637 47.0675C49.6197 46.1742 50.111 45.024 50.111 43.617C50.111 42.7013 49.8989 41.875 49.4745 41.138C49.0502 40.401 48.302 39.731 47.23 39.128C46.1804 38.525 44.684 37.9555 42.741 37.4195C39.9047 36.6825 37.6714 35.8115 36.041 34.8065C34.433 33.8015 33.294 32.6625 32.624 31.3895C31.954 30.0942 31.619 28.6648 31.619 27.1015C31.619 24.3545 32.5794 22.177 34.5 20.569C36.443 18.961 39.1454 18.157 42.607 18.157C43.9917 18.157 45.1307 18.2798 46.024 18.5255C46.9174 18.7712 47.632 19.028 48.168 19.296C48.7264 19.5417 49.1619 19.6645 49.4745 19.6645C49.8319 19.6645 50.1669 19.5417 50.4795 19.296C50.8145 19.028 51.1384 18.7712 51.451 18.5255C51.7637 18.2575 52.0652 18.1235 52.3555 18.1235C52.5565 18.1235 52.7352 18.1905 52.8915 18.3245C53.0479 18.4362 53.1707 18.6595 53.26 18.9945L55.538 26.9005C55.672 27.3248 55.7055 27.6822 55.6385 27.9725C55.5939 28.2405 55.4264 28.4415 55.136 28.5755C54.868 28.6648 54.6335 28.6648 54.4325 28.5755C54.2315 28.4638 54.0305 28.2628 53.8295 27.9725C52.8245 25.9402 51.7414 24.3322 50.58 23.1485C49.441 21.9425 48.235 21.0938 46.962 20.6025C45.689 20.0888 44.3379 19.832 42.9085 19.832C40.8985 19.832 39.3575 20.2898 38.2855 21.2055C37.2135 22.0988 36.6775 23.316 36.6775 24.857C36.6775 25.7727 36.9009 26.6102 37.3475 27.3695C37.8165 28.1288 38.6317 28.8323 39.793 29.48C40.9767 30.1053 42.6405 30.6972 44.7845 31.2555C47.3305 31.9032 49.3629 32.696 50.8815 33.634C52.4002 34.572 53.4945 35.6775 54.1645 36.9505C54.8345 38.2235 55.1695 39.6975 55.1695 41.3725C55.1695 43.0922 54.734 44.6108 53.863 45.9285C53.0144 47.2462 51.8195 48.2735 50.2785 49.0105C48.7599 49.7475 46.9955 50.116 44.9855 50.116C43.6679 50.116 42.5735 49.9485 41.7025 49.6135C40.8539 49.3008 40.1504 48.9882 39.592 48.6755C39.0337 48.3628 38.5759 48.2065 38.2185 48.2065C37.9059 48.2065 37.5932 48.3628 37.2805 48.6755C36.9902 48.9658 36.6887 49.2673 36.376 49.58C36.0857 49.8927 35.8065 50.049 35.5385 50.049C35.3375 50.049 35.1589 49.9708 35.0025 49.8145C34.8685 49.6805 34.768 49.446 34.701 49.111L33.1935 41.875C33.0819 41.339 33.0484 40.937 33.093 40.669C33.16 40.401 33.3164 40.2112 33.562 40.0995C33.83 39.9878 34.0645 40.0102 34.2655 40.1665C34.4665 40.3005 34.6675 40.5462 34.8685 40.9035C36.2755 43.6058 37.8277 45.5377 39.525 46.699C41.2224 47.838 42.9309 48.4075 44.6505 48.4075Z" fill="#AB3415"/>
<path d="M19.3494 36.7114V18.8335H25.3153V49.379H19.4688V44.0892H19.1506C18.4479 45.7199 17.321 47.0788 15.7699 48.1659C14.232 49.2398 12.3163 49.7767 10.0227 49.7767C8.06061 49.7767 6.32386 49.3459 4.8125 48.4841C3.31439 47.6091 2.13447 46.3165 1.27273 44.6063C0.424242 42.896 0 40.7815 0 38.2625V18.8335H5.94602V37.5466C5.94602 39.6281 6.52273 41.2853 7.67614 42.5182C8.82955 43.7512 10.3277 44.3676 12.1705 44.3676C13.2841 44.3676 14.3911 44.0892 15.4915 43.5324C16.6051 42.9756 17.5265 42.1337 18.2557 41.0068C18.9981 39.88 19.3627 38.4481 19.3494 36.7114Z" fill="#AB3415"/>
</svg>
